<?xml version="1.0" encoding="UTF-8"?>
<svg id="Layer_1" xmlns="http://www.w3.org/2000/svg" xmlns:xlink="http://www.w3.org/1999/xlink" version="1.1" viewBox="0 0 1500 320">
  <!-- Generator: Adobe Illustrator 29.1.0, SVG Export Plug-In . SVG Version: 2.1.0 Build 142)  -->
  <defs>
    <style>
      .st0 {
        fill: none;
      }

      .st1 {
        fill: #fae62f;
      }

      .st2 {
        clip-path: url(#clippath);
      }
    </style>
    <clipPath id="clippath">
      <rect class="st0" width="1500" height="320"/>
    </clipPath>
  </defs>
  <g class="st2">
    <g>
      <rect width="1500" height="320"/>
      <g>
        <path class="st1" d="M1548.9,144.4v-44.1h-27.1v-44h-74.7v44h-130.7v44h-26.8v-3h3.2v-3.2h-3.1v-3h3.1v-3.2h-3.1v-3h3.1v-3.2h-3.1v-3h3.1v-3.2h-3.1v-3h3.1v-3.2h-3.1v-3h3.1v-3.2h-3.1v-3h3.1v-3.2h-3.2v3.1h-3v-3.1h-3.2v3.1h-3v-3.1h-3.2v3.1h-3v-3.1h-3.2v3.1h-3v-3.1h-3.2v3.1h-3v-3.1h-3.2v3.1h-3v-3.1h-3.2v3.1h-3v-3.1h-231.7v44h-169.3v-14.7h-14.7v-14.6h14.7v-14.8h-14.8v14.7h-14.6v-14.7h-247.2v44h-32.2v-44h-30.7v14.7h-14.6v-14.7h-14.8v14.7h-14.7v14.8h14.7v14.6h-57.8v-43.9h37.1v-44.1h-37.9v44h-130v-44h-36.8V-1.1h-37.9v57.4h-43.6v6.4h43.6v6.2h-43.6v6.4h43.6v6.2h-43.6v6.4h43.6v6.2h-43.6v6.3h0v44h-68.8v-44H0v44.1h58.4v43.9H0v132.1h1471.5v-44h32.6v-44.1h-19.6v-44h-33v-43.9h97.4ZM818.3,129.6h-14.6v-14.6h14.6v14.6ZM1021.1,232.3h-95.6v-43.9h95.6v43.9ZM297.2,194.7v-6.3h11.6v43.9h-11.6v-6.3h-32.1v6.3h-132.3v-14.6h14.7v-14.8h-14.7v-14.6h132.3v6.3h32.1ZM768.4,244.9h-6.2v-6.2h6.2v6.2ZM768.4,257.4h-6.2v-6.2h6.2v6.2ZM756,263.7v-6.2h6.2v6.2h-6.2ZM755.9,238.7v6.2h-6.2v-6.2h6.2ZM749.7,257.4v-6.2h6.2v6.2h-6.2ZM762.2,251.2h-6.2v-6.2h6.2v6.2ZM749.6,245v6.2h-6.2v-6.2h6.2ZM762.2,238.6h-6.2v-6.2h6.2v6.2ZM749.6,238.6h-6.2v-6.2h6.2v6.2ZM743.3,251.3v6.2h-6.2v-6.2h6.2ZM743.4,263.7v-6.2h6.2v6.2h-6.2ZM743.3,238.7v6.2h-6.2v-6.2h6.2ZM737.1,270v-6.2h6.2v6.2h-6.2ZM749.7,270v-6.2h6.2v6.2h-6.2ZM762.3,270v-6.2h6.2v6.2h-6.2ZM774.7,263.7h-6.2v-6.2h6.2v6.2ZM774.7,251.2h-6.2v-6.2h6.2v6.2ZM768.5,238.6v-6.2h6.2v6.2h-6.2ZM132.6,203.1v14.6h-14.6v-14.6h14.6ZM412.1,232.4h4v43.9h-4v-43.9ZM656.5,232.4h6v43.9h-6v-43.9ZM743.4,270.1h6.2v6.2h-6.2v-6.2ZM756,270.1h6.2v6.2h-6.2v-6.2ZM768.5,270.1h6.2v6.2h-6.2v-6.2ZM774.8,270v-6.2h6.3v-6.4h-6.3v-6.2h6.3v-6.4h-6.3v-6.2h6.3v-6.3h57v43.9h-57v-6.3h-6.3ZM368,232.4v43.9h-15.3v-43.9h15.3ZM1270.6,106.7v3h-3v-3h3ZM1251.9,141.3h3v3h-3v-3ZM1251.9,135h3v3h-3v-3ZM1251.9,122.4h3v3h-3v-3ZM1270.6,113v3h-3v-3h3ZM1283.2,113v3h-3v-3h3ZM1283.2,122.3h-3v-3h3v3ZM1283.2,128.6h-3v-3h3v3ZM1267.6,141.2v-3h3v3h-3ZM1280,119.2h-3v-3h3v3ZM1280,125.4h-3v-3h3v3ZM1270.7,138v-3h3v3h-3ZM1258.2,122.4h3v3h-3v-3ZM1270.6,119.3v3h-3v-3h3ZM1276.9,128.6h-3v-3h3v3ZM1261.3,125.5h3v3h-3v-3ZM1270.6,125.5v3h-3v-3h3ZM1264.4,128.7h3v3h-3v-3ZM1270.7,131.7v-3h3v3h-3ZM1273.8,125.4h-3v-3h3v3ZM1267.5,125.4h-3v-3h3v3ZM1261.3,131.8h3v3h-3v-3ZM1267.6,131.8h3v3h-3v-3ZM1264.3,122.3h-3v-3h3v3ZM1261.2,128.7v3h-3v-3h3ZM1258.1,135h3v3h-3v-3ZM1273.9,134.9v-3h3v3h-3ZM1277,131.7v-3h3v3h-3ZM1276.9,122.3h-3v-3h3v3ZM1261.2,119.2h-3v-3h3v3ZM1264.4,135h3v3h-3v-3ZM1273.8,119.2h-3v-3h3v3ZM1267.5,119.2h-3v-3h3v3ZM1255,119.3h3v3h-3v-3ZM1255,125.5h3v3h-3v-3ZM1255,131.8h3v3h-3v-3ZM1255,138.1h3v3h-3v-3ZM1261.3,138.1h3v3h-3v-3ZM1273.9,138.1h3v3h-3v-3ZM1277,138v-3h3v3h-3ZM1264.3,116h-3v-3h3v3ZM1280.2,134.9v-3h3v3h-3ZM1276.9,116h-3v-3h3v3ZM1258,116h-3v-3h3v3ZM1251.9,116.1h3v3h-3v-3ZM1254.9,128.7v3h-3v-3h3ZM1258.1,141.3h3v3h-3v-3ZM1264.4,141.3h3v3h-3v-3ZM1270.7,141.3h3v3h-3v-3ZM1277,141.3h3v3h-3v-3ZM1280.2,141.2v-3h3v3h-3ZM1286.3,131.7h-3v-3h3v3ZM1283.3,125.4v-3h3v3h-3ZM1283.3,119.2v-3h3v3h-3ZM1283.3,112.9v-3h3v3h-3ZM1280,109.8v3h-3v-3h3ZM1273.8,112.9h-3v-3h3v3ZM1267.5,112.9h-3v-3h3v3ZM1261.2,109.8v3h-3v-3h3ZM1283.3,138v-3h3v3h-3ZM1283.2,109.7h-3v-3h3v3ZM1277,106.6v-3h3v3h-3ZM1264.3,109.7h-3v-3h3v3ZM1258.2,106.6v-3h3v3h-3ZM1254.9,109.8v3h-3v-3h3ZM1251.8,113v3h-3v-3h3ZM1251.8,119.3v3h-3v-3h3ZM1251.8,125.5v3h-3v-3h3ZM1251.8,131.8v3h-3v-3h3ZM1251.8,138.1v3h-3v-3h3ZM1283.3,144.3v-3h3v3h-3ZM1286.4,131.8h3v3h-3v-3ZM1286.4,125.5h3v3h-3v-3ZM1286.4,119.3h3v3h-3v-3ZM1289.5,116h-3v-3h3v3ZM1286.4,106.7h3v3h-3v-3ZM1276.9,109.7h-3v-3h3v3ZM1258,109.7h-3v-3h3v3ZM118,203h-14.6v-14.6h14.6v14.6ZM103.4,217.7h14.6v14.6h-14.6v-14.6ZM1286.4,141.2v-3h3v3h-3ZM1286.3,106.6h-3v-3h3v3ZM1273.8,106.6h-3v-3h3v3ZM1267.5,103.5v3h-3v-3h3ZM1254.9,106.6h-3v-3h3v3ZM1251.8,106.7v3h-3v-3h3ZM832.9,144.3h-14.6v-14.6h14.6v14.6ZM493.8,129.7h14.6v14.6h-14.6v-14.6ZM479.1,115.1h14.6v14.6h-14.6v-14.6Z"/>
        <rect class="st1" x="265" y="213.4" width="32.1" height="6.4"/>
        <rect class="st1" x="265" y="200.9" width="32.1" height="6.4"/>
      </g>
      <g>
        <path d="M458.2,235h-12.4v52.5h12.4v-52.5Z"/>
        <path d="M467.6,237.1h-6.2v44h6.2v-44Z"/>
        <path d="M475.3,240.9h-5.1v36.5h5.1v-36.5Z"/>
        <path d="M481,243.3h-3.6v31.7h3.6v-31.7Z"/>
        <path d="M485,245.7h-2.4v26.8h2.4v-26.8Z"/>
        <path d="M487.6,247.9h-1.2v22.5h1.2v-22.5Z"/>
        <path d="M503.5,269.9v-21h8.7c4.4,0,7.2,2.7,7.2,6.6s-2.8,6.6-7.2,6.6h-5.4v7.8h-3.3ZM506.7,259.1h5.3c2.6,0,3.9-1.6,3.9-3.6s-1.3-3.6-3.9-3.6h-5.3v7.3h0Z"/>
        <path d="M521.2,269.9v-14.9h3.1v2c.8-1.6,2.3-2.3,3.9-2.3s2.1.4,2.1.4l-.3,2.8c-.2,0-.8-.3-1.8-.3-1.7,0-3.8.9-3.8,4.2v8.1h-3.1Z"/>
        <path d="M530.9,262.4c0-4.4,3.4-7.8,8-7.8s8,3.4,8,7.8-3.4,7.8-8,7.8-8-3.4-8-7.8ZM538.8,267.3c2.8,0,4.9-2.1,4.9-4.9s-2-4.9-4.9-4.9-4.9,2.1-4.9,4.9,2,4.9,4.9,4.9Z"/>
        <path d="M549.1,248.1h3.1v9c1.1-1.4,2.8-2.3,5.3-2.3,4.3,0,7.5,3.1,7.5,7.7s-3.3,7.8-7.5,7.8-4.2-.9-5.3-2.3v2h-3.1v-21.8ZM557.1,267.4c2.9,0,4.8-2.3,4.8-5.1s-1.9-4.9-4.8-4.9-4.9,2.2-4.9,4.9,2.1,5.1,4.9,5.1Z"/>
        <path d="M574.6,254.7c4.4,0,7.2,3.2,7.2,7.2s0,.9-.1,1.4h-11.6c.1,2.2,2.1,4,4.6,4s3.4-.8,4.5-2.5l2.3,1.6c-1.4,2.5-4.1,3.8-6.8,3.8-4.5,0-7.8-3.3-7.8-7.7s3.2-7.8,7.7-7.8ZM578.7,261c-.2-2.1-1.9-3.6-4.1-3.6s-4,1.5-4.4,3.6h8.5Z"/>
        <path d="M598.2,269.9h-14v-21.1h3.3v18.1h10.7v3h0Z"/>
        <path d="M606.7,260.9c1.8,0,3.1.4,3.8.7v-.8c0-1.9-1.5-3.3-3.8-3.3s-3.4,1.1-4.3,2.1l-1.9-1.9c1.2-1.5,3.6-3,6.3-3,4.2,0,6.9,2.3,6.9,5.9v9.3h-3v-1.9c-.9,1.4-2.7,2.2-4.7,2.2-3.2,0-5.8-1.6-5.8-4.5s2.7-4.7,6.6-4.7h0ZM606.3,267.7c2.4,0,4.1-1.7,4.1-3.7-.6-.3-2.1-.7-3.7-.7s-3.6.7-3.6,2.3,1.4,2.1,3.1,2.1h0Z"/>
        <path d="M616.1,248.1h3.1v9c1.1-1.4,2.8-2.3,5.3-2.3,4.3,0,7.5,3.1,7.5,7.7s-3.3,7.8-7.5,7.8-4.2-.9-5.3-2.3v2h-3.1v-21.8ZM624.2,267.4c2.9,0,4.8-2.3,4.8-5.1s-1.9-4.9-4.8-4.9-4.9,2.2-4.9,4.9,2.1,5.1,4.9,5.1Z"/>
      </g>
      <path d="M1109.4,258.1h-8.7v-61.9h8.8v25c1.4-2.2,5.4-6.2,13-6.2,11.4,0,17.5,7.2,17.5,17.4v25.6h-8.7v-23.8c0-7-3.8-11-10.2-11s-11.7,4-11.7,11v23.8ZM1148.7,237c0-12.6,9-22,21.8-22s20.3,9.1,20.3,20.4,0,2.7-.4,4h-32.7c.4,6.3,5.8,11.3,13.1,11.3s9.5-2.2,12.7-7.2l6.4,4.7c-3.9,7-11.6,10.7-19.1,10.7-12.7,0-22.1-9.4-22.1-21.9ZM1158,233h24c-.5-5.9-5.5-10.1-11.6-10.1s-11.4,4.2-12.5,10.1ZM1209.1,258.1h-8.7v-42.2h8.7v5.8c2.4-4.6,6.4-6.6,11-6.6s5.8,1.1,5.8,1.1l-.9,8c-.5-.2-2.4-1-5.2-1-4.7,0-10.7,2.5-10.7,12v23ZM1233.2,258.1v-42.2h8.8v5.3c1.4-2.2,5.4-6.2,12.8-6.2s12.3,3,15,7.9c2.5-4.1,7.8-7.9,15.1-7.9,11.2,0,17.3,7.2,17.3,17.4v25.6h-8.8v-23.8c0-7-3.7-11-9.9-11s-11.2,3.9-11.4,10.5v24.3h-8.7v-23.8c0-7-3.7-11-9.9-11s-11.4,4-11.4,11v23.8h-8.8ZM1311,237c0-12.6,9-22,21.8-22s20.3,9.1,20.3,20.4,0,2.7-.4,4h-32.7c.4,6.3,5.8,11.3,13.1,11.3s9.5-2.2,12.7-7.2l6.4,4.7c-3.9,7-11.6,10.7-19.1,10.7-12.7,0-22.1-9.4-22.1-21.9ZM1320.2,233h24c-.5-5.9-5.5-10.1-11.6-10.1s-11.4,4.2-12.5,10.1ZM1359.3,249.2l6.5-5.2c2.4,4.1,6.4,7,11.8,7s7.9-1.8,7.9-4.7-2.6-4.1-8.8-5.5c-9.1-2-15.5-4.9-15.5-13.2s7-12.6,15.6-12.6,13.9,4.1,16.7,8.7l-5.8,5c-2.3-3.3-5.9-5.8-10.9-5.8s-7,1.8-7,4.5,3.1,4.1,9.3,5.6c9.2,2.2,15.2,5.2,15.2,13.3s-7.7,12.7-16.7,12.7-15-3.8-18.2-9.8Z"/>
    </g>
  </g>
</svg>